<svg xmlns="http://www.w3.org/2000/svg" xmlns:xlink="http://www.w3.org/1999/xlink" width="89" height="90" viewBox="0 0 89 90">
  <defs>
    <filter id="A" x="19" y="1" width="52" height="89" filterUnits="userSpaceOnUse">
      <feOffset dy="3" input="SourceAlpha"/>
      <feGaussianBlur stdDeviation="3" result="blur"/>
      <feFlood flood-color="#61dafb" flood-opacity="0.141"/>
      <feComposite operator="in" in2="blur"/>
      <feComposite in="SourceGraphic"/>
    </filter>
  </defs>
  <g id="logo" transform="translate(-173 -28)">
    <g id="Path_4" data-name="Path 4" transform="translate(173 28)" fill="none">
      <path d="M44.5,0,89,32.085,72,84H17L0,32.085l12.752-9.194Z" stroke="none"/>
      <path d="M 44.50000381469727 1.232826232910156 L 13.33674621582031 23.70198822021484 L 1.177825927734375 32.46875 L 17.72230529785156 83 L 71.27770233154297 83 L 87.82218170166016 32.4687385559082 L 44.50000381469727 1.232826232910156 M 44.50000381469727 0 L 89 32.08514022827148 L 72.00251770019531 84 L 16.99748992919922 84 L 7.62939453125e-06 32.08515167236328 C 7.62939453125e-06 32.08515167236328 1.626899719238281 30.91212844848633 12.75189971923828 22.89084625244141 C 23.87689971923828 14.86955261230469 44.50000381469727 0 44.50000381469727 0 Z" stroke="none" fill="#61dafb"/>
    </g>
    <g transform="matrix(1, 0, 0, 1, 173, 28)" filter="url(#A)">
      <text id="A-2" data-name="A" transform="translate(28 60)" fill="#61dafb" font-size="50" font-family="Poppins-Regular, Poppins"><tspan x="0" y="0">A</tspan></text>
    </g>
  </g>
</svg>
